<?xml version="1.0" encoding="UTF-8" standalone="no" ?>
<!DOCTYPE svg PUBLIC "-//W3C//DTD SVG 1.1//EN" "http://www.w3.org/Graphics/SVG/1.1/DTD/svg11.dtd">
<svg xmlns="http://www.w3.org/2000/svg" xmlns:xlink="http://www.w3.org/1999/xlink" version="1.1" width="1080" height="1080" viewBox="0 0 1080 1080" xml:space="preserve">
<desc>Created with Fabric.js 5.2.4</desc>
<defs>
</defs>
<g transform="matrix(1 0 0 1 540 540)" id="14b9adc2-18fb-439b-9805-175123e5043d"  >
<rect style="stroke: none; stroke-width: 1; stroke-dasharray: none; stroke-linecap: butt; stroke-dashoffset: 0; stroke-linejoin: miter; stroke-miterlimit: 4; fill: rgb(255,255,255); fill-rule: nonzero; opacity: 1; visibility: hidden;" vector-effect="non-scaling-stroke"  x="-540" y="-540" rx="0" ry="0" width="1080" height="1080" />
</g>
<g transform="matrix(1 0 0 1 540 540)" id="859e8379-b2c4-48ec-9730-737fcf0b2fa4"  >
</g>

<g transform="matrix(45 0 0 45 540 540)"  >
<path style="stroke: none; stroke-width: 1; stroke-dasharray: none; stroke-linecap: butt; stroke-dashoffset: 0; stroke-linejoin: miter; stroke-miterlimit: 4; fill: rgb(78,236,29); fill-rule: nonzero; opacity: 1;"  transform=" translate(-12, -12)" d="M 12 0 C 5.372583002030479 0 0 5.372583002030479 0 12 C 0 18.627416997969522 5.372583002030479 24 12 24 C 18.627416997969522 24 24 18.627416997969522 24 12 C 23.992285237700276 5.375781192803821 18.624218807196172 0.007714762299714906 11.999999999999993 0 z M 18.927 8.2 L 12.082 17.488999999999997 C 11.918753588718815 17.705589643580417 11.675328260583157 17.847505081432633 11.406421865961109 17.88285781023609 C 11.13751547133906 17.91821053903955 10.865681051275185 17.84403554360797 10.652000000000001 17.676999999999996 L 5.764000000000001 13.768999999999997 C 5.3326656103821515 13.423822031355751 5.262822031355755 12.794334389617847 5.608000000000001 12.362999999999998 C 5.953177968644247 11.931665610382147 6.582665610382151 11.861822031355752 7.014000000000001 12.206999999999997 L 11.09 15.467999999999996 L 17.317 7.016999999999996 C 17.521191977603362 6.710590019421486 17.87725107608211 6.541182653609862 18.243811546006004 6.5760375213454925 C 18.6103720159299 6.6108923890811235 18.92812230609881 6.8443697762052365 19.070906370807638 7.1837724143519095 C 19.21369043551646 7.523175052498582 19.15840500788457 7.913585680802026 18.927 8.199999999999996 z" stroke-linecap="round" />
</g>

</svg>